<svg xmlns="http://www.w3.org/2000/svg" viewBox="-180 -180 360 360">
  <defs>
    <linearGradient id="downGlow" x1="0" y1="0" x2="0" y2="1">
      <stop offset="0%" stop-color="#8b1a1a" stop-opacity="0.7"/>
      <stop offset="50%" stop-color="#9ba0a3" stop-opacity="0.35"/>
      <stop offset="100%" stop-color="#c7cacc" stop-opacity="0.08"/>
    </linearGradient>
    <radialGradient id="lensGlow" cx="50%" cy="50%" r="50%">
      <stop offset="0%" stop-color="#8b1a1a" stop-opacity="0.85"/>
      <stop offset="100%" stop-color="#8b1a1a" stop-opacity="0"/>
    </radialGradient>
    <radialGradient id="tipGlow" cx="50%" cy="50%" r="50%">
      <stop offset="0%" stop-color="#c0392b" stop-opacity="0.7"/>
      <stop offset="100%" stop-color="#c0392b" stop-opacity="0"/>
    </radialGradient>
    <clipPath id="squareClip"><rect x="-180" y="-180" width="360" height="360" rx="40"/></clipPath>
  </defs>

  <rect x="-180" y="-180" width="360" height="360" rx="40" fill="#ffffff"/>
  <g clip-path="url(#squareClip)">
    <g transform="translate(0,25) scale(1.15) translate(0,-65)">
      <path d="M-10,30 L-215,150 L215,150 L10,30 Z" fill="url(#downGlow)"/>
      <circle cx="0" cy="30" r="20" fill="url(#lensGlow)"/>
      <rect x="-23" y="98" width="46" height="52" fill="#0e2a47"/>
      <rect x="-27" y="146" width="54" height="7" rx="1" fill="#0e2a47"/>
      <rect x="-15" y="60" width="30" height="38" fill="#0e2a47"/>
      <rect x="-21" y="47" width="42" height="11" rx="2" fill="#0e2a47"/>
      <rect x="-15" y="15" width="30" height="32" rx="3" fill="#0e2a47"/>
      <circle cx="0" cy="30" r="12" fill="none" stroke="#b9bcbe" stroke-width="4"/>
      <circle cx="0" cy="30" r="5" fill="#e8b4a0"/>
      <ellipse cx="0" cy="13" rx="28" ry="5" fill="#0e2a47"/>
      <path d="M-28,13 Q-9,3 0,-13 Q9,3 28,13 Z" fill="#0e2a47"/>
      <circle cx="0" cy="-13" r="8" fill="url(#tipGlow)"/>
      <circle cx="0" cy="-13" r="4.5" fill="#c0392b"/>
    </g>
  </g>
</svg>
