<svg xmlns="http://www.w3.org/2000/svg" viewBox="0 55 900 270">
  <defs>
    <linearGradient id="downGlow" x1="0" y1="0" x2="0" y2="1">
      <stop offset="0%" stop-color="#8b1a1a" stop-opacity="0.65"/>
      <stop offset="30%" stop-color="#a24242" stop-opacity="0.38"/>
      <stop offset="60%" stop-color="#9ba0a3" stop-opacity="0.28"/>
      <stop offset="100%" stop-color="#c7cacc" stop-opacity="0.06"/>
    </linearGradient>
    <radialGradient id="lensGlow" cx="50%" cy="50%" r="50%">
      <stop offset="0%" stop-color="#8b1a1a" stop-opacity="0.85"/>
      <stop offset="100%" stop-color="#8b1a1a" stop-opacity="0"/>
    </radialGradient>
    <radialGradient id="tipGlow" cx="50%" cy="50%" r="50%">
      <stop offset="0%" stop-color="#c0392b" stop-opacity="0.7"/>
      <stop offset="100%" stop-color="#c0392b" stop-opacity="0"/>
    </radialGradient>
    <radialGradient id="halo" cx="50%" cy="50%" r="50%">
      <stop offset="0%" stop-color="#8b1a1a" stop-opacity="0.16"/>
      <stop offset="50%" stop-color="#9ba0a3" stop-opacity="0.08"/>
      <stop offset="100%" stop-color="#b9bcbe" stop-opacity="0"/>
    </radialGradient>
    <linearGradient id="hatShade" x1="0" y1="0" x2="1" y2="0">
      <stop offset="0%" stop-color="#0e2a47" stop-opacity="0"/>
      <stop offset="100%" stop-color="#000" stop-opacity="0.2"/>
    </linearGradient>
  </defs>

  <!-- ICON -->
  <g transform="translate(230,185) scale(0.76) translate(0,-65)">
    <circle cx="0" cy="30" r="120" fill="url(#halo)"/>
    <path d="M-10,30 L-215,150 L215,150 L10,30 Z" fill="url(#downGlow)"/>
    <line x1="-10" y1="30" x2="-215" y2="150" stroke="#9ba0a3" stroke-width="1" opacity="0.35"/>
    <line x1="10"  y1="30" x2="215"  y2="150" stroke="#9ba0a3" stroke-width="1" opacity="0.35"/>
    <circle cx="0" cy="30" r="20" fill="url(#lensGlow)"/>
    <line x1="-235" y1="150" x2="235" y2="150" stroke="#0e2a47" stroke-width="3.5"/>
    <rect x="-23" y="98" width="46" height="52" fill="#0e2a47"/>
    <rect x="-27" y="146" width="54" height="7" rx="1" fill="#0e2a47"/>
    <rect x="-15" y="60" width="30" height="38" fill="#0e2a47"/>
    <rect x="-21" y="47" width="42" height="11" rx="2" fill="#0e2a47"/>
    <rect x="-15" y="15" width="30" height="32" rx="3" fill="#0e2a47"/>
    <circle cx="0" cy="30" r="12" fill="none" stroke="#b9bcbe" stroke-width="3"/>
    <circle cx="0" cy="30" r="5" fill="#e8b4a0"/>
    <ellipse cx="0" cy="13" rx="28" ry="5" fill="#0e2a47"/>
    <path d="M-28,13 Q-9,3 0,-13 Q9,3 28,13 Z" fill="#0e2a47"/>
    <path d="M0,-13 Q9,3 28,13 L14,13 Q6,4 0,-8 Z" fill="url(#hatShade)"/>
    <circle cx="0" cy="-13" r="7" fill="url(#tipGlow)"/>
    <circle cx="0" cy="-13" r="3.5" fill="#c0392b"/>
  </g>

  <!-- DIVIDER -->
  <line x1="470" y1="115" x2="470" y2="255" stroke="#d5d3cc" stroke-width="2"/>

  <!-- WORDMARK -->
  <text x="505" y="200" font-family="'Space Grotesk', sans-serif" font-size="62" font-weight="700" letter-spacing="6" fill="#0e2a47">LUMEN</text>
  <text x="508" y="240" font-family="'Space Grotesk', sans-serif" font-size="37" letter-spacing="9.5" fill="#3a3a38">SECURITY</text>
</svg>
